<?xml version="1.0" encoding="UTF-8" standalone="no"?>
<svg width="60px" height="42px" viewBox="0 0 60 42" version="1.1" xmlns="http://www.w3.org/2000/svg" xmlns:xlink="http://www.w3.org/1999/xlink">
    <!-- Generator: Sketch 3.8.3 (29802) - http://www.bohemiancoding.com/sketch -->
    <title>SF LOGO</title>
    <desc>Created with Sketch.</desc>
    <defs></defs>
    <g id="_For-DEV_Trust-Status" stroke="none" stroke-width="1" fill="none" fill-rule="evenodd">
        <g id="L-(1068-980)-" transform="translate(-44.000000, -7.000000)">
            <g id="NAV">
                <g id="LOGO" transform="translate(44.000000, 7.000000)">
                    <g id="SF-LOGO">
                        <path d="M24.9737569,4.59296685 C26.9077293,2.57835912 29.5999061,1.32833702 32.5777293,1.32833702 C36.5355912,1.32833702 39.989337,3.53530939 41.8279392,6.81212155 C43.4267238,6.0978895 45.1954807,5.70039779 47.0565912,5.70039779 C54.195663,5.70039779 59.9834254,11.5387459 59.9834254,18.7409337 C59.9834254,25.9432376 54.195663,31.7814696 47.0565912,31.7814696 C46.1849171,31.7814696 45.3334309,31.693989 44.5100221,31.5278453 C42.8909337,34.4160994 39.8041657,36.3677072 36.2623591,36.3677072 C34.7798287,36.3677072 33.3771215,36.025558 32.1281436,35.4162099 C30.486779,39.2781215 26.6611823,41.9858453 22.2039613,41.9858453 C17.561337,41.9858453 13.6044033,39.0486298 12.0863702,34.9289171 C11.4223757,35.0691878 10.7344807,35.1430939 10.0291823,35.1430939 C4.50177348,35.1430939 0.0211160221,30.6156796 0.0211160221,25.0307238 C0.0211160221,21.2877348 2.0338674,18.0198564 5.02561326,16.2712873 C4.40953591,14.8537293 4.06761878,13.2899834 4.06761878,11.6460663 C4.06761878,5.22261878 9.28165193,0.0154309392 15.7136851,0.0154309392 C19.4899724,0.0154309392 22.8457956,1.81075691 24.9737569,4.59296685" id="Fill-1" fill="#00A1E0"></path>
                        <path d="M12.8531602,20.1008287 C12.7834309,19.9283039 12.6901492,19.7790994 12.5759834,19.6575083 C12.4622818,19.5366133 12.3245635,19.4341657 12.1667735,19.3534144 C12.012232,19.2745193 11.8467845,19.2053702 11.6753039,19.1480552 L11.2070387,18.9885249 C11.0816188,18.9466409 10.9625801,18.9040608 10.8534033,18.8617127 C10.7485193,18.821337 10.6541934,18.7715635 10.5732099,18.7142486 C10.4953591,18.6590221 10.4328232,18.5918453 10.3876906,18.5139945 C10.3436022,18.4384641 10.3212099,18.3444862 10.3212099,18.2348453 C10.3212099,18.0235691 10.4092707,17.8807459 10.5906133,17.7979061 C10.7844862,17.7096133 11.0108453,17.6648287 11.2631934,17.6648287 C11.5053315,17.6648287 11.7350552,17.6911657 11.9460994,17.7429116 C12.1580718,17.7951215 12.3439392,17.849884 12.4985967,17.9060387 L12.5479061,17.9239061 L12.5702983,17.876337 C12.6277293,17.7540497 12.6772707,17.6185359 12.7171823,17.4736243 C12.7568619,17.3292928 12.7842431,17.183105 12.7987459,17.0386575 L12.8031547,16.993989 L12.7606906,16.9789061 C12.5598564,16.9072044 12.3228232,16.8439724 12.0562044,16.7904862 C11.7878453,16.736884 11.5103204,16.7098508 11.2314033,16.7098508 C10.5542983,16.7098508 10.0320829,16.8573149 9.67925967,17.1482983 C9.32318785,17.4418343 9.14265746,17.8431547 9.14265746,18.3411215 C9.14265746,18.7165691 9.25183425,19.0198508 9.46705525,19.2426133 C9.67763536,19.4605028 10.0176961,19.6584365 10.4774917,19.8308453 L10.8523591,19.9699558 C10.9843923,20.0116077 11.1100442,20.0558122 11.2261823,20.1016409 C11.3384917,20.1458453 11.4380387,20.1990994 11.5221547,20.259547 C11.6036022,20.3182541 11.6696188,20.390884 11.7184641,20.4756961 C11.7663812,20.5584199 11.7906298,20.6669006 11.7906298,20.7976575 C11.7906298,20.9134475 11.759768,21.0191436 11.6989724,21.1117293 C11.6360884,21.2076796 11.5523204,21.2895912 11.450105,21.3556077 C11.3459171,21.4226685 11.2214254,21.4738343 11.0797624,21.5073646 C10.7349448,21.5898564 10.3355967,21.5682762 9.95040331,21.4911215 C9.72474033,21.446105 9.51543646,21.3844972 9.32829282,21.3080387 L9.27469061,21.2863425 L9.25322652,21.3398287 C9.19625967,21.4813757 9.1439337,21.6277956 9.09740884,21.7747956 C9.05030387,21.9233039 9.0189779,22.0720442 9.00459116,22.2170718 L9.00018232,22.2618564 L9.04264641,22.2770552 C9.26355249,22.3554862 9.50638674,22.4188343 9.76407182,22.4655912 C10.0216409,22.511884 10.3257348,22.5355525 10.667768,22.5355525 C11.0052762,22.5355525 11.3186519,22.4916961 11.5991934,22.4053757 C11.8813591,22.3184751 12.1254696,22.1953757 12.3249116,22.039442 C12.5258619,21.8823481 12.6833039,21.6895193 12.7930608,21.4665249 C12.9028177,21.2436464 12.9585083,20.9933867 12.9585083,20.7232873 C12.9585083,20.4830055 12.9231215,20.2737017 12.8531602,20.1008287" id="Fill-2" fill="#FFFFFF"></path>
                        <path d="M17.3580663,17.2078177 C16.9800663,16.8772707 16.4235083,16.7098508 15.7035912,16.7098508 C15.4329116,16.7098508 15.1473812,16.7313149 14.8551215,16.774011 C14.5626298,16.8168232 14.2092265,16.8969945 13.9662762,16.9757735 L13.9264807,16.9885359 L13.9264807,17.0300718 C13.9264807,17.3650276 13.9970221,17.6574033 14.1362486,17.8991934 L14.159105,17.938989 L14.2030773,17.9254144 C14.405768,17.8625304 14.6981436,17.7925691 14.9108122,17.7541657 C15.1234807,17.7161105 15.3542486,17.6966188 15.5973149,17.6966188 C15.9865691,17.6966188 16.2861381,17.7750497 16.4874365,17.9294751 C16.6842099,18.0804199 16.783989,18.3585249 16.783989,18.7557845 L16.783989,18.8922265 C16.6962762,18.8813204 16.5938287,18.8718066 16.4788508,18.863221 C16.3324309,18.852547 16.1431989,18.8470939 15.9163757,18.8470939 C15.6078729,18.8470939 15.3093481,18.8853812 15.0292707,18.9609116 C14.7478011,19.036674 14.4946409,19.1542044 14.2769834,19.3099061 C14.0581657,19.466884 13.8822762,19.666558 13.7546519,19.9038232 C13.6266796,20.1415525 13.5617072,20.4209337 13.5617072,20.7340773 C13.5617072,21.0533702 13.6173978,21.3303149 13.7269227,21.556558 C13.8370276,21.7840773 13.9951657,21.9737735 14.1966961,22.1204254 C14.3969503,22.2661492 14.6617127,22.4047956 14.9451547,22.4828785 C15.2424033,22.5647901 15.535011,22.5825414 15.8841215,22.5557403 C16.1583978,22.5348564 16.5404586,22.464779 16.7979116,22.1823812 C16.7979116,22.1823812 16.8497735,22.4906519 16.9586022,22.5227901 C17.0601215,22.5528398 17.2336906,22.5557403 17.3961215,22.5557403 C17.8070718,22.5557403 17.9306354,22.4427348 17.9306354,22.4427348 L17.9306354,18.7983646 C17.9306354,18.075547 17.7380387,17.5405691 17.3580663,17.2078177 M16.783989,19.8381547 L16.783989,20.9347956 C16.6781768,21.1331934 16.4461326,21.3625691 16.2649061,21.4350829 C15.981,21.5486685 15.7908398,21.5804586 15.4753757,21.5487845 C15.3419503,21.535326 15.2187348,21.4984309 15.1090939,21.4384475 C15.0010773,21.3796243 14.9096519,21.2930718 14.8373702,21.1812265 C14.7659006,21.0708895 14.7295856,20.9134475 14.7295856,20.7126133 C14.7295856,20.396337 14.8345856,20.1683536 15.0510829,20.0152044 C15.2702486,19.8598508 15.5973149,19.7810718 16.022768,19.7810718 C16.133453,19.7810718 16.2712873,19.7882652 16.432442,19.8023039 C16.5685359,19.8140221 16.6865304,19.8260884 16.783989,19.8381547" id="Fill-3" fill="#FFFFFF"></path>
                        <path d="M26.008326,18.265011 C25.9069227,17.9507072 25.756442,17.6755028 25.5612928,17.4477514 C25.3654475,17.2189558 25.1187845,17.0368011 24.8284972,16.9060442 C24.5389061,16.7758674 24.1981492,16.7098508 23.8158564,16.7098508 C23.3697514,16.7098508 22.9769006,16.7883978 22.6482099,16.9437514 C22.3192873,17.099337 22.0423425,17.3120055 21.8253812,17.5760718 C21.6084199,17.8401381 21.4456409,18.154674 21.341337,18.5110939 C21.2376133,18.8655414 21.1849392,19.2521271 21.1849392,19.6597127 C21.1849392,20.0750718 21.2393536,20.4618895 21.3470221,20.8093757 C21.4555028,21.1603425 21.629768,21.4682652 21.8645967,21.724442 C22.0996575,21.981547 22.4021271,22.1833094 22.7635359,22.3241602 C23.1229724,22.4644309 23.5594475,22.5355525 24.060547,22.5355525 C24.401884,22.5355525 24.7183923,22.5102597 25.0011381,22.4602541 C25.2852762,22.4096685 25.5486464,22.333326 25.7846354,22.2330829 L25.8215304,22.2174199 L25.819674,22.1773923 C25.8122486,22.0255193 25.7902044,21.8701657 25.7542376,21.7151602 C25.7178066,21.5581823 25.6694254,21.4229006 25.6108343,21.3130276 L25.5868177,21.267895 L25.5391326,21.2865746 C25.0943039,21.4603757 24.6183812,21.5484365 24.1243591,21.5484365 C23.5678011,21.5484365 23.1428122,21.4141989 22.8609945,21.1493204 C22.5895028,20.8940718 22.4406464,20.4875304 22.4184862,19.9407182 L26.1231878,19.9407182 L26.1277127,19.8883923 C26.1347901,19.8099613 26.1418674,19.7157514 26.1491768,19.6049503 C26.1562541,19.493221 26.1599669,19.3864807 26.1599669,19.2876298 C26.1599669,18.9220442 26.1088011,18.5780387 26.008326,18.265011 M23.7840663,17.6648287 C23.9933702,17.6648287 24.176105,17.7039282 24.3268177,17.7808508 C24.4777624,17.8580055 24.6035304,17.9618453 24.7006409,18.0888895 C24.7990276,18.2179061 24.874558,18.3708232 24.9252597,18.5434641 C24.9715525,18.7007901 24.9973094,18.8672818 25.0018343,19.0387624 L22.4342652,19.0387624 C22.4878674,18.6152818 22.6218729,18.2791657 22.8329171,18.038884 C23.0508066,17.7907127 23.3707956,17.6648287 23.7840663,17.6648287" id="Fill-4" fill="#FFFFFF"></path>
                        <path d="M30.5105635,20.1008287 C30.4407182,19.9283039 30.3474365,19.7790994 30.2332707,19.6575083 C30.119453,19.5366133 29.9817348,19.4340497 29.8241768,19.3534144 C29.6697514,19.2745193 29.5043039,19.2053702 29.3325912,19.1480552 L28.864326,18.9885249 C28.7387901,18.9466409 28.6198674,18.9040608 28.5106906,18.8617127 C28.4058066,18.821337 28.3115967,18.7715635 28.2307293,18.7142486 C28.1525304,18.6590221 28.0901105,18.5916133 28.0449779,18.5139945 C28.0008895,18.4384641 27.9784972,18.3444862 27.9784972,18.2348453 C27.9784972,18.0235691 28.066674,17.8807459 28.2480166,17.7979061 C28.4417735,17.7096133 28.6681326,17.6648287 28.9207127,17.6648287 C29.1628508,17.6648287 29.3924586,17.6911657 29.6033867,17.7429116 C29.8153591,17.7951215 30.0012265,17.849884 30.156,17.9060387 L30.2053094,17.9239061 L30.2275856,17.876337 C30.2851326,17.7540497 30.334558,17.6185359 30.3745856,17.4736243 C30.4140331,17.3297569 30.4415304,17.183453 30.4559171,17.0386575 L30.460674,16.994221 L30.4182099,16.9789061 C30.2170276,16.9072044 29.9801105,16.8437403 29.7136077,16.7904862 C29.4452486,16.736884 29.1677238,16.7098508 28.8888066,16.7098508 C28.2117017,16.7098508 27.6894862,16.8573149 27.336547,17.1482983 C26.9804751,17.4419503 26.7999448,17.8432707 26.7999448,18.3411215 C26.7999448,18.7165691 26.9092376,19.0198508 27.1244586,19.2426133 C27.3350387,19.4605028 27.6750994,19.6584365 28.134895,19.8308453 L28.5097624,19.9699558 C28.6420276,20.0117238 28.7677956,20.0560442 28.8834696,20.1016409 C28.995895,20.1458453 29.095326,20.1990994 29.179442,20.259547 C29.2608895,20.3182541 29.3269061,20.390884 29.3758674,20.4756961 C29.4236685,20.5584199 29.4479171,20.6669006 29.4479171,20.7976575 C29.4479171,20.9134475 29.4171713,21.0191436 29.3562597,21.1117293 C29.2934917,21.2075635 29.2098398,21.2895912 29.1073923,21.3556077 C29.0033204,21.4226685 28.8788287,21.4738343 28.7370497,21.5073646 C28.3924641,21.5898564 27.993,21.5682762 27.6078066,21.4911215 C27.3821436,21.446105 27.1728398,21.3844972 26.9855801,21.3080387 L26.9319779,21.2863425 L26.9105138,21.3398287 C26.854011,21.4809116 26.801453,21.6270994 26.7548122,21.7747956 C26.7075912,21.9233039 26.6763812,22.0720442 26.6619945,22.2170718 L26.6575856,22.2618564 L26.6999337,22.2770552 C26.9210718,22.3554862 27.163674,22.4188343 27.4215912,22.4655912 C27.6790442,22.511884 27.9830221,22.5355525 28.3251713,22.5355525 C28.6626796,22.5355525 28.9759392,22.4916961 29.2565967,22.4053757 C29.5385304,22.3184751 29.7827569,22.1953757 29.9823149,22.039442 C30.1830331,21.8823481 30.3405912,21.6895193 30.4504641,21.4665249 C30.560105,21.2435304 30.6157956,20.9933867 30.6157956,20.7232873 C30.6157956,20.4828895 30.5802928,20.2734696 30.5105635,20.1008287" id="Fill-5" fill="#FFFFFF"></path>
                        <path d="M35.4247956,14.521442 C35.3100497,14.4857072 35.1826575,14.4548453 35.0460994,14.4294365 C34.9078011,14.4042597 34.7432818,14.3913812 34.5570663,14.3913812 C33.9060663,14.3913812 33.3931326,14.5760884 33.0326519,14.9401657 C32.6748398,15.3016906 32.4315414,15.8523315 32.3097182,16.5766575 L32.2645856,16.8373591 L31.3901271,16.8373591 L31.3764365,16.8751823 C31.3184254,17.0344807 31.279674,17.183453 31.2616906,17.3178066 C31.2438232,17.4516961 31.2345414,17.5917348 31.2345414,17.7349061 L31.2345414,17.7925691 L32.1062155,17.7925691 L31.2992818,22.3086133 C31.2362818,22.6721105 31.163768,22.9712155 31.0837127,23.1979227 C31.0045856,23.4216133 30.9161768,23.5970387 30.8212707,23.7188619 C30.7294972,23.8366243 30.6226409,23.9160994 30.5032541,23.9546188 C30.3787624,23.9951105 30.2361713,24.0156464 30.0798895,24.0156464 C29.9927569,24.0156464 29.9051602,24.0071768 29.82,23.9901215 C29.7353039,23.9731823 29.6580331,23.9510221 29.5906243,23.924105 L29.5436354,23.9053094 L29.5190387,23.9495138 C29.4466409,24.0801547 29.3877017,24.2143923 29.3444254,24.3479337 C29.3016133,24.4798508 29.2649503,24.6310276 29.2360608,24.7971713 L29.2280552,24.843 L29.2714475,24.8604033 C29.3803923,24.9039116 29.5094088,24.9389503 29.6552486,24.9647072 C29.8000442,24.99 29.9536575,25.0028785 30.1117956,25.0028785 C30.4428066,25.0028785 30.7373867,24.9568177 30.9875304,24.8664365 C31.2395304,24.7751271 31.4638011,24.6231381 31.6537293,24.4149945 C31.8419171,24.2088232 32.0013315,23.9361713 32.1275635,23.6043481 C32.2524033,23.2755414 32.3589116,22.8677238 32.4440718,22.3922652 L33.2547182,17.7925691 L34.5546298,17.7925691 L34.5684365,17.7546298 C34.6260994,17.5957956 34.6647348,17.4490276 34.6831823,17.3174586 C34.7011657,17.1872818 34.7103315,17.0449227 34.7103315,16.8949061 L34.7103315,16.8373591 L33.4187735,16.8373591 C33.4245746,16.8112541 33.4294475,16.7853812 33.4333923,16.7598564 C33.4397735,16.7166961 33.4502155,16.6709834 33.4651823,16.6172652 C33.5068343,16.3673536 33.5628729,16.1587459 33.631558,15.9975912 C33.6988508,15.8387569 33.7791381,15.7125249 33.8692873,15.6221436 C33.9579282,15.5333867 34.0593315,15.4701547 34.1705967,15.4339558 C34.2848785,15.3970608 34.4149392,15.3784972 34.5570663,15.3784972 C34.6653149,15.3784972 34.7606851,15.3887072 34.8407403,15.408663 C34.9226519,15.4289669 35.0030552,15.4535635 35.0798619,15.4814088 L35.1270829,15.4984641 L35.1502873,15.4539116 C35.2218729,15.3177017 35.2820884,15.1850884 35.3287293,15.0592044 C35.3757182,14.9328564 35.4213149,14.7749503 35.463895,14.5894309 L35.4758453,14.5375691 L35.4247956,14.521442" id="Fill-6" fill="#FFFFFF"></path>
                        <path d="M39.7571768,18.4841768 C39.6522928,18.1306575 39.4892818,17.8194862 39.2727845,17.5597127 C39.0555912,17.2993591 38.7807348,17.0902873 38.4552928,16.9384144 C38.1301989,16.7866575 37.7462818,16.7098508 37.3144475,16.7098508 C36.8827293,16.7098508 36.4986961,16.7866575 36.1733702,16.9384144 C35.8482762,17.0902873 35.5730718,17.2993591 35.3557624,17.5600608 C35.1391492,17.8202983 34.9761381,18.1312376 34.8717182,18.4841768 C34.7678785,18.8353757 34.7152044,19.220105 34.7152044,19.6279227 C34.7152044,20.0358564 34.7678785,20.4208177 34.8717182,20.7714365 C34.9761381,21.1244917 35.1389171,21.435547 35.3559945,21.6961326 C35.5734199,21.9568343 35.8487403,22.1642818 36.1739503,22.312442 C36.4992762,22.4603702 36.8830773,22.5355525 37.3144475,22.5355525 C37.7459337,22.5355525 38.1295028,22.4603702 38.4547127,22.312442 C38.7800387,22.1642818 39.0551271,21.9568343 39.2727845,21.6961326 C39.4892818,21.4363591 39.6522928,21.1251878 39.7571768,20.7714365 C39.8610166,20.4201215 39.9135746,20.0353923 39.9135746,19.6279227 C39.9135746,19.2205691 39.8610166,18.8358398 39.7571768,18.4841768 M38.692442,19.6279227 C38.692442,20.2445801 38.5774641,20.7314088 38.351105,21.0744862 C38.1264862,21.414895 37.7874696,21.5803425 37.3144475,21.5803425 C36.8414254,21.5803425 36.5041492,21.415011 36.2832431,21.0748343 C36.0601326,20.7315249 35.946779,20.2445801 35.946779,19.6279227 C35.946779,19.0113812 36.0600166,18.5265249 36.283011,18.1865801 C36.5040331,17.849768 36.8414254,17.6862928 37.3144475,17.6862928 C37.7874696,17.6862928 38.1264862,17.85 38.351337,18.1870442 C38.5776961,18.5266409 38.692442,19.0113812 38.692442,19.6279227" id="Fill-7" fill="#FFFFFF"></path>
                        <path d="M43.6703702,17.0805414 C43.6629448,17.0077956 43.664221,16.9760055 43.6497182,16.910221 L43.6413646,16.8721657 L43.6029613,16.8657845 C43.5584088,16.8585912 43.5046906,16.8529061 43.4428508,16.8493094 C42.9625193,16.8218122 42.577558,16.8799392 42.2682431,17.062558 C42.0497735,17.1915746 41.8332762,17.3262762 41.6957901,17.5120276 C41.6957901,17.5120276 41.6974144,17.3609669 41.6947459,17.2293978 C41.6910331,17.0501436 41.6894088,16.9826188 41.6733978,16.8467569 L41.6366188,16.8387514 C41.5711823,16.8241326 41.4972762,16.8131105 41.4168729,16.8055691 C41.2551381,16.7912983 41.0953757,16.7912983 40.9487238,16.8055691 C40.8762099,16.8131105 40.7996354,16.8240166 40.7209724,16.8382873 L40.6735193,16.8468729 L40.6735193,22.3992265 L40.7216685,22.407232 C40.808337,22.4215028 40.9011547,22.4325249 40.9980331,22.4396022 C41.0978122,22.4470276 41.1843646,22.4505083 41.2627956,22.4505083 C41.3402983,22.4505083 41.4294033,22.4467956 41.527558,22.4396022 C41.6244365,22.4325249 41.7142376,22.4215028 41.7941768,22.406884 L41.8415138,22.3985304 L41.8415138,19.6387127 C41.8415138,19.2776519 41.8816575,18.9799392 41.9604365,18.7535801 C42.0385193,18.5296575 42.1445635,18.3510994 42.2759006,18.222895 C42.4070055,18.0950387 42.5567901,18.0050055 42.7204972,17.954884 C42.8879171,17.9037182 43.0665912,17.8776133 43.2515304,17.8776133 L43.3949337,17.8776133 C43.4500442,17.8776133 43.5044586,17.8843425 43.5565525,17.897105 L43.617,17.9120718 L43.627326,17.8506961 C43.6414807,17.7648398 43.654011,17.6753867 43.6649171,17.581989 C43.6757072,17.488011 43.6812762,17.3964696 43.6812762,17.3095691 C43.6812762,17.2317182 43.6776796,17.1545635 43.6703702,17.0805414" id="Fill-8" fill="#FFFFFF"></path>
                        <path d="M48.2454696,22.2307624 C48.2382762,22.070768 48.2122873,21.9125138 48.168895,21.7604088 C48.1256188,21.6080718 48.0736409,21.4785912 48.0148177,21.3752155 L47.990221,21.3325193 L47.9439282,21.3501547 C47.7639779,21.4195359 47.5834475,21.4686133 47.4081381,21.4959945 C47.2315525,21.5238398 47.0358232,21.5377624 46.8267514,21.5377624 C46.3135856,21.5377624 45.9051878,21.3844972 45.6132762,21.0821436 C45.3204365,20.7790939 45.1720442,20.2899448 45.1720442,19.6279227 C45.1720442,19.0479282 45.3041934,18.5762983 45.564895,18.2267238 C45.8216519,17.8820221 46.2175193,17.7074088 46.7418232,17.7074088 C47.1796906,17.7074088 47.5740497,17.7671602 47.9138785,17.8849227 L47.9628398,17.9019779 L47.984884,17.855221 C48.0433591,17.7310773 48.0894199,17.5851215 48.1223702,17.4218785 C48.1546243,17.2599116 48.1709834,17.114768 48.1709834,16.9905083 L48.1709834,16.9509448 L48.1338564,16.9369061 C47.9259448,16.858011 47.7037624,16.7996519 47.4736906,16.763453 C47.2443149,16.7278343 46.9766519,16.7098508 46.677663,16.7098508 C46.2321381,16.7098508 45.8344144,16.7864254 45.4950497,16.9379503 C45.1560331,17.0895912 44.8685304,17.298547 44.640547,17.5587845 C44.4127956,17.8190221 44.2391105,18.1299613 44.1242486,18.4827845 C44.0092707,18.8340994 43.9511436,19.2194088 43.9511436,19.6279227 C43.9511436,20.5106188 44.1885249,21.2231105 44.6569061,21.745442 C45.1269116,22.2696298 45.8319779,22.5355525 46.7522652,22.5355525 C47.2955967,22.5355525 47.785674,22.4519006 48.2089227,22.2870331 L48.247442,22.2720663 L48.2454696,22.2307624" id="Fill-9" fill="#FFFFFF"></path>
                        <path d="M53.2896464,18.265011 C53.1883591,17.9507072 53.0378785,17.6755028 52.8424972,17.4477514 C52.6466519,17.2189558 52.400221,17.0368011 52.1098177,16.9060442 C51.8203425,16.7758674 51.4794696,16.7098508 51.0972928,16.7098508 C50.6511878,16.7098508 50.258337,16.7883978 49.9296464,16.9437514 C49.6007238,17.099337 49.323779,17.3120055 49.1067017,17.5760718 C48.8898564,17.8401381 48.7270773,18.154674 48.6226575,18.5110939 C48.5189337,18.8655414 48.4662597,19.2521271 48.4662597,19.6597127 C48.4662597,20.0751878 48.5207901,20.4620055 48.6283425,20.8093757 C48.7368232,21.1603425 48.9109724,21.4682652 49.1460331,21.724442 C49.3809779,21.981547 49.6834475,22.1833094 50.0448564,22.3241602 C50.4045249,22.4644309 50.840768,22.5355525 51.3419834,22.5355525 C51.6833204,22.5355525 51.9997127,22.5102597 52.2824586,22.4602541 C52.5663646,22.4096685 52.8301989,22.333326 53.0659558,22.2330829 L53.1029669,22.2174199 L53.1009945,22.1773923 C53.093453,22.0255193 53.0716409,21.8701657 53.035558,21.7151602 C52.999011,21.5581823 52.9508619,21.4229006 52.8922707,21.3130276 L52.8681381,21.267895 L52.820453,21.2865746 C52.3757403,21.4603757 51.8995856,21.5484365 51.4056796,21.5484365 C50.8491215,21.5484365 50.4240166,21.4141989 50.1423149,21.1493204 C49.8707072,20.8940718 49.7219669,20.4875304 49.6996906,19.9407182 L53.4045083,19.9407182 L53.4090331,19.8883923 C53.4161105,19.8099613 53.4233039,19.7157514 53.4306133,19.6049503 C53.4375746,19.493221 53.4411713,19.3864807 53.4411713,19.2876298 C53.4411713,18.9220442 53.3902376,18.5780387 53.2896464,18.265011 M51.0655028,17.6648287 C51.2746906,17.6648287 51.4573094,17.7039282 51.6081381,17.7808508 C51.7589669,17.8580055 51.8849669,17.9618453 51.9819613,18.0888895 C52.080232,18.2179061 52.1557624,18.3708232 52.2066961,18.5434641 C52.2528729,18.7010221 52.2786298,18.8672818 52.2833867,19.0387624 L49.7155856,19.0387624 C49.7691878,18.6152818 49.9030773,18.2791657 50.1143536,18.038884 C50.3321271,17.7907127 50.652116,17.6648287 51.0655028,17.6648287" id="Fill-10" fill="#FFFFFF"></path>
                        <path d="M20.0923591,22.4044475 L20.1396961,22.3958619 L20.1396961,16.0424917 L20.139,16.0427238 L20.139,14.5071713 L20.091663,14.4985856 C20.0116077,14.4840829 19.9219227,14.4729448 19.8249282,14.4658674 C19.7267735,14.458674 19.6377845,14.4550773 19.5603978,14.4550773 C19.4817348,14.4550773 19.3951823,14.458674 19.2955193,14.4658674 C19.1985249,14.4731768 19.1088398,14.4840829 19.0291326,14.4985856 L18.9817956,14.5071713 L18.9817956,20.9360718 L18.9824917,20.9358398 L18.9824917,22.3958619 L19.0298287,22.4044475 C19.109768,22.4190663 19.199453,22.4299724 19.2964475,22.4371657 C19.3946022,22.4442431 19.4835912,22.4479558 19.5609779,22.4479558 C19.6396409,22.4479558 19.7263094,22.4443591 19.8259724,22.4371657 C19.9228508,22.4299724 20.0126519,22.4190663 20.0923591,22.4044475" id="Fill-11" fill="#FFFFFF"></path>
                    </g>
                </g>
            </g>
        </g>
    </g>
</svg>